<svg width="185" height="46" viewBox="0 0 185 46" fill="none" xmlns="http://www.w3.org/2000/svg">
<g clip-path="url(#clip0_291_1750)">
<rect width="46" height="46" rx="23" fill="#EBEEEE"/>
<path d="M32.4442 46.5007H12.0629V50.6673C12.0629 51.0817 11.8983 51.4791 11.6053 51.7722C11.3122 52.0652 10.9148 52.2298 10.5004 52.2298C10.086 52.2298 9.68858 52.0652 9.39555 51.7722C9.10252 51.4791 8.9379 51.0817 8.9379 50.6673V45.8257C7.21082 45.0715 5.83374 43.7319 5.17124 42.0402C5.14218 41.9702 5.11508 41.8993 5.08999 41.8277L2.3754 34.5507C1.51082 32.2298 3.44415 29.834 6.18165 29.834C7.86915 29.834 9.37749 30.7777 9.95249 32.1965L12.24 37.834C12.4483 38.3465 12.5525 38.6048 12.7025 38.8132C13.0771 39.3168 13.6274 39.6611 14.2442 39.7777C14.515 39.834 14.8212 39.834 15.4317 39.834H29.9733C31.1587 39.834 31.7504 39.834 32.2462 39.6298C32.5171 39.5173 32.7629 39.3632 32.9733 39.1736C33.3567 38.8277 33.5587 38.3298 33.9629 37.334L36.0483 32.1965C36.6233 30.7798 38.1317 29.834 39.8192 29.834C42.5567 29.834 44.49 32.2298 43.6254 34.5507L41.2921 40.8007C40.8858 41.8923 40.6837 42.4361 40.415 42.9007C39.6373 44.2075 38.463 45.2322 37.0629 45.8257V50.6673C37.0629 51.0817 36.8983 51.4791 36.6053 51.7722C36.3122 52.0652 35.9148 52.2298 35.5004 52.2298C35.086 52.2298 34.6886 52.0652 34.3955 51.7722C34.1025 51.4791 33.9379 51.0817 33.9379 50.6673V46.4902C33.5483 46.5007 33.0733 46.5007 32.4442 46.5007Z" fill="#375957"/>
<path d="M25.6548 15.4102H20.5048C18.2131 15.4102 16.3881 15.4102 14.9631 15.5935C13.4923 15.781 12.286 16.1768 11.3256 17.0935C10.3589 18.0122 9.93184 19.1831 9.73184 20.6039C9.53809 21.9747 9.53809 23.7185 9.53809 25.8956V27.7289L9.97559 28.0414C10.8423 28.6539 11.5423 29.4956 11.9631 30.531L14.5339 36.8685H30.0527L30.8089 36.8664H30.8131L31.6214 36.8518L31.8839 36.2268L32.1131 35.6685L34.1964 30.531C34.6173 29.4956 35.3173 28.656 36.1839 28.0393L36.6214 27.7268V25.8935C36.6214 23.7185 36.6214 21.9747 36.4277 20.6039C36.2277 19.1831 35.8006 18.0122 34.8339 17.0914C33.8756 16.1789 32.6673 15.781 31.1985 15.5914C29.7714 15.4102 27.9485 15.4102 25.6548 15.4102Z" fill="#375957"/>
</g>
<path d="M59.1 14.248C60.1453 14.136 61.1067 14.052 61.984 13.996C62.88 13.9213 63.7107 13.884 64.476 13.884C64.9053 15.284 65.4 16.7493 65.96 18.28C66.52 19.8107 67.108 21.3507 67.724 22.9C68.3587 24.4493 69.0027 25.9427 69.656 27.38C70.6267 25.2893 71.5507 23.1427 72.428 20.94C73.324 18.7373 74.2013 16.3947 75.06 13.912C76.068 13.912 77.0667 13.94 78.056 13.996C79.0453 14.052 79.8853 14.1267 80.576 14.22C80.576 15.2467 80.576 16.4693 80.576 17.888C80.5947 19.288 80.604 20.8 80.604 22.424C80.6227 24.0293 80.6413 25.6347 80.66 27.24C80.6787 28.8453 80.6973 30.3573 80.716 31.776C80.7347 33.1947 80.7627 34.4173 80.8 35.444C80.3707 35.4627 79.848 35.4813 79.232 35.5C78.616 35.5187 77.972 35.528 77.3 35.528C76.628 35.5467 76.0027 35.556 75.424 35.556C75.4987 33.6707 75.5547 31.7853 75.592 29.9C75.6293 27.996 75.6573 26.148 75.676 24.356C75.7133 22.564 75.732 20.9027 75.732 19.372C74.948 21.5747 74.136 23.6747 73.296 25.672C72.4747 27.6693 71.5973 29.6387 70.664 31.58L66.352 31.832C65.288 29.5173 64.2987 27.3053 63.384 25.196C62.4693 23.068 61.6573 21.0893 60.948 19.26L61.564 35.556L58.4 35.444C58.456 34.4547 58.512 33.3253 58.568 32.056C58.624 30.7867 58.6707 29.452 58.708 28.052C58.764 26.652 58.8107 25.2613 58.848 23.88C58.904 22.48 58.9507 21.1547 58.988 19.904C59.0253 18.6347 59.0533 17.5147 59.072 16.544C59.0907 15.5547 59.1 14.7893 59.1 14.248ZM84.4509 39.196L84.1709 36.564C85.1603 36.508 86.0469 36.3773 86.8309 36.172C87.6336 35.9853 88.3616 35.6867 89.0149 35.276C88.2309 33.708 87.4376 32.0373 86.6349 30.264C85.8323 28.4907 85.0669 26.7453 84.3389 25.028C83.6296 23.292 83.0136 21.7053 82.4909 20.268C83.1629 20.156 84.0029 20.044 85.0109 19.932C86.0189 19.82 87.0083 19.7267 87.9789 19.652C88.4456 21.0893 89.0616 22.816 89.8269 24.832C90.5923 26.848 91.4229 28.9667 92.3189 31.188C92.9349 29.9373 93.5229 28.3787 94.0829 26.512C94.6429 24.6453 95.2496 22.396 95.9029 19.764L99.2909 20.156C98.3763 23.516 97.4149 26.3907 96.4069 28.78C95.4176 31.1507 94.3349 33.092 93.1589 34.604C92.0016 36.116 90.7043 37.236 89.2669 37.964C87.8296 38.692 86.2243 39.1027 84.4509 39.196ZM101.127 14.248C102.173 14.136 103.134 14.052 104.011 13.996C104.907 13.9213 105.738 13.884 106.503 13.884C106.933 15.284 107.427 16.7493 107.987 18.28C108.547 19.8107 109.135 21.3507 109.751 22.9C110.386 24.4493 111.03 25.9427 111.683 27.38C112.654 25.2893 113.578 23.1427 114.455 20.94C115.351 18.7373 116.229 16.3947 117.087 13.912C118.095 13.912 119.094 13.94 120.083 13.996C121.073 14.052 121.913 14.1267 122.603 14.22C122.603 15.2467 122.603 16.4693 122.603 17.888C122.622 19.288 122.631 20.8 122.631 22.424C122.65 24.0293 122.669 25.6347 122.687 27.24C122.706 28.8453 122.725 30.3573 122.743 31.776C122.762 33.1947 122.79 34.4173 122.827 35.444C122.398 35.4627 121.875 35.4813 121.259 35.5C120.643 35.5187 119.999 35.528 119.327 35.528C118.655 35.5467 118.03 35.556 117.451 35.556C117.526 33.6707 117.582 31.7853 117.619 29.9C117.657 27.996 117.685 26.148 117.703 24.356C117.741 22.564 117.759 20.9027 117.759 19.372C116.975 21.5747 116.163 23.6747 115.323 25.672C114.502 27.6693 113.625 29.6387 112.691 31.58L108.379 31.832C107.315 29.5173 106.326 27.3053 105.411 25.196C104.497 23.068 103.685 21.0893 102.975 19.26L103.591 35.556L100.427 35.444C100.483 34.4547 100.539 33.3253 100.595 32.056C100.651 30.7867 100.698 29.452 100.735 28.052C100.791 26.652 100.838 25.2613 100.875 23.88C100.931 22.48 100.978 21.1547 101.015 19.904C101.053 18.6347 101.081 17.5147 101.099 16.544C101.118 15.5547 101.127 14.7893 101.127 14.248ZM133.058 35.64C131.546 35.64 130.184 35.2947 128.97 34.604C127.776 33.8947 126.824 32.9427 126.114 31.748C125.424 30.5347 125.078 29.1627 125.078 27.632C125.078 26.1013 125.414 24.7387 126.086 23.544C126.777 22.3493 127.71 21.4067 128.886 20.716C130.081 20.0253 131.434 19.68 132.946 19.68C134.365 19.68 135.634 19.9973 136.754 20.632C137.893 21.248 138.808 22.116 139.498 23.236C140.208 24.356 140.628 25.672 140.758 27.184L129.642 29.256C129.997 30.4693 130.557 31.4587 131.322 32.224C132.088 32.9707 132.946 33.344 133.898 33.344C134.776 33.344 135.644 33.0453 136.502 32.448C137.361 31.832 138.024 31.048 138.49 30.096L140.478 31.776C139.564 33.008 138.462 33.96 137.174 34.632C135.886 35.304 134.514 35.64 133.058 35.64ZM129.278 26.512C129.278 26.624 129.278 26.7173 129.278 26.792L135.802 25.896C135.672 24.7013 135.289 23.74 134.654 23.012C134.02 22.284 133.245 21.92 132.33 21.92C131.378 21.92 130.632 22.3307 130.09 23.152C129.549 23.9547 129.278 25.0747 129.278 26.512ZM147.678 35.556C146.875 35.556 146.054 35.5373 145.214 35.5C144.374 35.4813 143.683 35.4627 143.142 35.444C143.123 35.0147 143.104 34.3333 143.086 33.4C143.086 32.448 143.076 31.3373 143.058 30.068C143.058 28.7987 143.048 27.4547 143.03 26.036C143.03 24.5987 143.02 23.1613 143.002 21.724C143.002 20.2867 143.002 18.924 143.002 17.636C143.002 16.348 143.002 15.2373 143.002 14.304C143.431 14.304 143.935 14.3133 144.514 14.332C145.111 14.332 145.708 14.3413 146.306 14.36C146.903 14.3787 147.407 14.3973 147.818 14.416C147.818 16.1707 147.818 18.3173 147.818 20.856C148.938 20.072 150.114 19.68 151.346 19.68C152.54 19.68 153.604 20.016 154.538 20.688C155.471 21.36 156.208 22.284 156.75 23.46C157.291 24.6173 157.562 25.9427 157.562 27.436C157.562 28.948 157.272 30.3293 156.694 31.58C156.134 32.812 155.368 33.8013 154.398 34.548C153.446 35.276 152.372 35.64 151.178 35.64C150.076 35.64 148.919 35.3133 147.706 34.66C147.687 35.0333 147.678 35.332 147.678 35.556ZM150.058 21.976C149.236 21.976 148.48 22.4427 147.79 23.376C147.79 24.776 147.78 26.1667 147.762 27.548C147.762 28.9293 147.752 30.1987 147.734 31.356C148.051 31.9907 148.452 32.4947 148.938 32.868C149.442 33.2227 149.974 33.4 150.534 33.4C151.411 33.4 152.092 32.952 152.578 32.056C153.082 31.16 153.334 29.9187 153.334 28.332C153.334 27.1187 153.184 26.036 152.886 25.084C152.606 24.1133 152.223 23.3573 151.738 22.816C151.252 22.256 150.692 21.976 150.058 21.976ZM167.211 35.64C165.699 35.64 164.336 35.2947 163.123 34.604C161.928 33.8947 160.976 32.9427 160.267 31.748C159.576 30.5347 159.231 29.1627 159.231 27.632C159.231 26.1013 159.567 24.7387 160.239 23.544C160.929 22.3493 161.863 21.4067 163.039 20.716C164.233 20.0253 165.587 19.68 167.099 19.68C168.517 19.68 169.787 19.9973 170.907 20.632C172.045 21.248 172.96 22.116 173.651 23.236C174.36 24.356 174.78 25.672 174.911 27.184L163.795 29.256C164.149 30.4693 164.709 31.4587 165.475 32.224C166.24 32.9707 167.099 33.344 168.051 33.344C168.928 33.344 169.796 33.0453 170.655 32.448C171.513 31.832 172.176 31.048 172.643 30.096L174.631 31.776C173.716 33.008 172.615 33.96 171.327 34.632C170.039 35.304 168.667 35.64 167.211 35.64ZM163.431 26.512C163.431 26.624 163.431 26.7173 163.431 26.792L169.955 25.896C169.824 24.7013 169.441 23.74 168.807 23.012C168.172 22.284 167.397 21.92 166.483 21.92C165.531 21.92 164.784 22.3307 164.243 23.152C163.701 23.9547 163.431 25.0747 163.431 26.512ZM181.97 14.304C181.933 15.368 181.905 16.4133 181.886 17.44C181.867 18.4667 181.858 19.4187 181.858 20.296C181.858 23.2453 181.942 25.6627 182.11 27.548C182.297 29.4147 182.577 30.852 182.95 31.86C183.323 32.8493 183.818 33.5027 184.434 33.82L182.474 36.06C181.466 35.948 180.617 35.6213 179.926 35.08C179.254 34.52 178.713 33.6893 178.302 32.588C177.891 31.468 177.593 30.0213 177.406 28.248C177.238 26.4747 177.154 24.3093 177.154 21.752C177.154 20.688 177.163 19.5307 177.182 18.28C177.219 17.0107 177.257 15.7227 177.294 14.416C177.835 14.3787 178.479 14.3507 179.226 14.332C179.973 14.3133 180.887 14.304 181.97 14.304Z" fill="#375957"/>
<defs>
<clipPath id="clip0_291_1750">
<rect width="46" height="46" rx="23" fill="white"/>
</clipPath>
</defs>
</svg>
